<svg xmlns="http://www.w3.org/2000/svg" width="181" height="96" viewBox="0 0 181 96" fill="none">
    <ellipse cx="55.9218" cy="3.69231" rx="3.97059" ry="3.69231" fill="black"/>
    <ellipse cx="73.1276" cy="3.69231" rx="3.97059" ry="3.69231" fill="black"/>
    <ellipse cx="90.3336" cy="3.69231" rx="3.97059" ry="3.69231" fill="black"/>
    <ellipse cx="107.539" cy="3.69231" rx="3.97059" ry="3.69231" fill="black"/>
    <ellipse cx="124.745" cy="3.69231" rx="3.97059" ry="3.69231" fill="black"/>
    <ellipse cx="141.951" cy="3.69231" rx="3.97059" ry="3.69231" fill="black"/>
    <ellipse cx="159.157" cy="3.69231" rx="3.97059" ry="3.69231" fill="black"/>
    <ellipse cx="176.363" cy="3.69231" rx="3.97059" ry="3.69231" fill="black"/>
    <ellipse cx="55.9218" cy="18.4615" rx="3.97059" ry="3.69231" fill="black"/>
    <ellipse cx="73.1276" cy="18.4615" rx="3.97059" ry="3.69231" fill="black"/>
    <ellipse cx="90.3336" cy="18.4615" rx="3.97059" ry="3.69231" fill="black"/>
    <ellipse cx="107.539" cy="18.4615" rx="3.97059" ry="3.69231" fill="black"/>
    <ellipse cx="124.745" cy="18.4615" rx="3.97059" ry="3.69231" fill="black"/>
    <ellipse cx="141.951" cy="18.4615" rx="3.97059" ry="3.69231" fill="black"/>
    <ellipse cx="159.157" cy="18.4615" rx="3.97059" ry="3.69231" fill="black"/>
    <ellipse cx="176.363" cy="18.4615" rx="3.97059" ry="3.69231" fill="black"/>
    <ellipse cx="55.9218" cy="3.69231" rx="3.97059" ry="3.69231" fill="black"/>
    <ellipse cx="73.1276" cy="3.69231" rx="3.97059" ry="3.69231" fill="black"/>
    <ellipse cx="90.3336" cy="3.69231" rx="3.97059" ry="3.69231" fill="black"/>
    <ellipse cx="107.539" cy="3.69231" rx="3.97059" ry="3.69231" fill="black"/>
    <ellipse cx="124.745" cy="3.69231" rx="3.97059" ry="3.69231" fill="black"/>
    <ellipse cx="141.951" cy="3.69231" rx="3.97059" ry="3.69231" fill="black"/>
    <ellipse cx="159.157" cy="3.69231" rx="3.97059" ry="3.69231" fill="black"/>
    <ellipse cx="176.363" cy="3.69231" rx="3.97059" ry="3.69231" fill="black"/>
    <ellipse cx="55.9218" cy="18.4615" rx="3.97059" ry="3.69231" fill="black"/>
    <ellipse cx="73.1276" cy="18.4615" rx="3.97059" ry="3.69231" fill="black"/>
    <ellipse cx="90.3336" cy="18.4615" rx="3.97059" ry="3.69231" fill="black"/>
    <ellipse cx="107.539" cy="18.4615" rx="3.97059" ry="3.69231" fill="black"/>
    <ellipse cx="124.745" cy="18.4615" rx="3.97059" ry="3.69231" fill="black"/>
    <ellipse cx="141.951" cy="18.4615" rx="3.97059" ry="3.69231" fill="black"/>
    <ellipse cx="159.157" cy="18.4615" rx="3.97059" ry="3.69231" fill="black"/>
    <ellipse cx="176.363" cy="18.4615" rx="3.97059" ry="3.69231" fill="black"/>
    <ellipse cx="55.9218" cy="33.2308" rx="3.97059" ry="3.69231" fill="black"/>
    <ellipse cx="73.1276" cy="33.2308" rx="3.97059" ry="3.69231" fill="black"/>
    <ellipse cx="90.3336" cy="33.2308" rx="3.97059" ry="3.69231" fill="black"/>
    <ellipse cx="107.539" cy="33.2308" rx="3.97059" ry="3.69231" fill="black"/>
    <ellipse cx="124.745" cy="33.2308" rx="3.97059" ry="3.69231" fill="black"/>
    <ellipse cx="141.951" cy="33.2308" rx="3.97059" ry="3.69231" fill="black"/>
    <ellipse cx="159.157" cy="33.2308" rx="3.97059" ry="3.69231" fill="black"/>
    <ellipse cx="176.363" cy="33.2308" rx="3.97059" ry="3.69231" fill="black"/>
    <ellipse cx="55.9218" cy="48" rx="3.97059" ry="3.69231" fill="black"/>
    <ellipse cx="73.1276" cy="48" rx="3.97059" ry="3.69231" fill="black"/>
    <ellipse cx="90.3336" cy="48" rx="3.97059" ry="3.69231" fill="black"/>
    <ellipse cx="107.539" cy="48" rx="3.97059" ry="3.69231" fill="black"/>
    <ellipse cx="124.745" cy="48" rx="3.97059" ry="3.69231" fill="black"/>
    <ellipse cx="141.951" cy="48" rx="3.97059" ry="3.69231" fill="black"/>
    <ellipse cx="159.157" cy="48" rx="3.97059" ry="3.69231" fill="black"/>
    <ellipse cx="176.363" cy="48" rx="3.97059" ry="3.69231" fill="black"/>
    <ellipse cx="55.9218" cy="62.7692" rx="3.97059" ry="3.69231" fill="black"/>
    <ellipse cx="73.1276" cy="62.7692" rx="3.97059" ry="3.69231" fill="black"/>
    <ellipse cx="90.3336" cy="62.7692" rx="3.97059" ry="3.69231" fill="black"/>
    <ellipse cx="107.539" cy="62.7692" rx="3.97059" ry="3.69231" fill="black"/>
    <ellipse cx="124.745" cy="62.7692" rx="3.97059" ry="3.69231" fill="black"/>
    <ellipse cx="141.951" cy="62.7692" rx="3.97059" ry="3.69231" fill="black"/>
    <ellipse cx="159.157" cy="62.7692" rx="3.97059" ry="3.69231" fill="black"/>
    <ellipse cx="176.363" cy="62.7692" rx="3.97059" ry="3.69231" fill="black"/>
    <ellipse cx="55.9218" cy="62.7692" rx="3.97059" ry="3.69231" fill="black"/>
    <ellipse cx="73.1276" cy="62.7692" rx="3.97059" ry="3.69231" fill="black"/>
    <ellipse cx="90.3336" cy="62.7692" rx="3.97059" ry="3.69231" fill="black"/>
    <ellipse cx="107.539" cy="62.7692" rx="3.97059" ry="3.69231" fill="black"/>
    <ellipse cx="124.745" cy="62.7692" rx="3.97059" ry="3.69231" fill="black"/>
    <ellipse cx="141.951" cy="62.7692" rx="3.97059" ry="3.69231" fill="black"/>
    <ellipse cx="159.157" cy="62.7692" rx="3.97059" ry="3.69231" fill="black"/>
    <ellipse cx="176.363" cy="62.7692" rx="3.97059" ry="3.69231" fill="black"/>
    <ellipse cx="55.9218" cy="77.5385" rx="3.97059" ry="3.69231" fill="black"/>
    <ellipse cx="73.1276" cy="77.5385" rx="3.97059" ry="3.69231" fill="black"/>
    <ellipse cx="90.3336" cy="77.5385" rx="3.97059" ry="3.69231" fill="black"/>
    <ellipse cx="107.539" cy="77.5385" rx="3.97059" ry="3.69231" fill="black"/>
    <ellipse cx="124.745" cy="77.5385" rx="3.97059" ry="3.69231" fill="black"/>
    <ellipse cx="141.951" cy="77.5385" rx="3.97059" ry="3.69231" fill="black"/>
    <ellipse cx="159.157" cy="77.5385" rx="3.97059" ry="3.69231" fill="black"/>
    <ellipse cx="176.363" cy="77.5385" rx="3.97059" ry="3.69231" fill="black"/>
    <ellipse cx="55.9218" cy="92.3077" rx="3.97059" ry="3.69231" fill="black"/>
    <ellipse cx="38.716" cy="3.69231" rx="3.97059" ry="3.69231" fill="black"/>
    <ellipse cx="38.716" cy="18.4615" rx="3.97059" ry="3.69231" fill="black"/>
    <ellipse cx="38.716" cy="33.2308" rx="3.97059" ry="3.69231" fill="black"/>
    <ellipse cx="38.716" cy="48" rx="3.97059" ry="3.69231" fill="black"/>
    <ellipse cx="38.716" cy="62.7692" rx="3.97059" ry="3.69231" fill="black"/>
    <ellipse cx="38.716" cy="77.5385" rx="3.97059" ry="3.69231" fill="black"/>
    <ellipse cx="38.716" cy="92.3077" rx="3.97059" ry="3.69231" fill="black"/>
    <ellipse cx="21.5097" cy="3.69231" rx="3.97059" ry="3.69231" fill="black"/>
    <ellipse cx="21.5097" cy="18.4615" rx="3.97059" ry="3.69231" fill="black"/>
    <ellipse cx="21.5097" cy="33.2308" rx="3.97059" ry="3.69231" fill="black"/>
    <ellipse cx="21.5097" cy="48" rx="3.97059" ry="3.69231" fill="black"/>
    <ellipse cx="21.5097" cy="62.7692" rx="3.97059" ry="3.69231" fill="black"/>
    <ellipse cx="21.5097" cy="77.5385" rx="3.97059" ry="3.69231" fill="black"/>
    <ellipse cx="21.5097" cy="92.3077" rx="3.97059" ry="3.69231" fill="black"/>
    <ellipse cx="4.30408" cy="3.69231" rx="3.97059" ry="3.69231" fill="black"/>
    <ellipse cx="4.30408" cy="18.4615" rx="3.97059" ry="3.69231" fill="black"/>
    <ellipse cx="4.30408" cy="33.2308" rx="3.97059" ry="3.69231" fill="black"/>
    <ellipse cx="4.30408" cy="48" rx="3.97059" ry="3.69231" fill="black"/>
    <ellipse cx="4.30408" cy="62.7692" rx="3.97059" ry="3.69231" fill="black"/>
    <ellipse cx="4.30408" cy="77.5385" rx="3.97059" ry="3.69231" fill="black"/>
    <ellipse cx="4.30408" cy="92.3077" rx="3.97059" ry="3.69231" fill="black"/>
    <ellipse cx="73.1276" cy="92.3077" rx="3.97059" ry="3.69231" fill="black"/>
    <ellipse cx="90.3336" cy="92.3077" rx="3.97059" ry="3.69231" fill="black"/>
    <ellipse cx="107.539" cy="92.3077" rx="3.97059" ry="3.69231" fill="black"/>
    <ellipse cx="124.745" cy="92.3077" rx="3.97059" ry="3.69231" fill="black"/>
    <ellipse cx="141.951" cy="92.3077" rx="3.97059" ry="3.69231" fill="black"/>
    <ellipse cx="159.157" cy="92.3077" rx="3.97059" ry="3.69231" fill="black"/>
    <ellipse cx="176.363" cy="92.3077" rx="3.97059" ry="3.69231" fill="black"/>
</svg>