<svg xmlns="http://www.w3.org/2000/svg" width="17" height="17" viewBox="0 0 17 17" fill="none">
    <path d="M12.9999 2.66663C13.3535 2.66663 13.6927 2.8071 13.9427 3.05715C14.1928 3.3072 14.3333 3.64634 14.3333 3.99996V13.3333C14.3333 13.6869 14.1928 14.0261 13.9427 14.2761C13.6927 14.5262 13.3535 14.6666 12.9999 14.6666H3.66659C3.31296 14.6666 2.97382 14.5262 2.72378 14.2761C2.47373 14.0261 2.33325 13.6869 2.33325 13.3333V3.99996C2.33325 3.64634 2.47373 3.3072 2.72378 3.05715C2.97382 2.8071 3.31296 2.66663 3.66659 2.66663H12.9999ZM12.6666 13V9.46663C12.6666 8.89022 12.4376 8.33743 12.03 7.92985C11.6225 7.52227 11.0697 7.29329 10.4933 7.29329C9.92659 7.29329 9.26659 7.63996 8.94659 8.15996V7.41996H7.08659V13H8.94659V9.71329C8.94659 9.19996 9.35992 8.77996 9.87325 8.77996C10.1208 8.77996 10.3582 8.87829 10.5332 9.05333C10.7083 9.22836 10.8066 9.46576 10.8066 9.71329V13H12.6666ZM4.91992 6.37329C5.21696 6.37329 5.50184 6.25529 5.71188 6.04525C5.92192 5.83521 6.03992 5.55034 6.03992 5.25329C6.03992 4.63329 5.53992 4.12663 4.91992 4.12663C4.62111 4.12663 4.33454 4.24533 4.12325 4.45662C3.91195 4.66791 3.79325 4.95448 3.79325 5.25329C3.79325 5.87329 4.29992 6.37329 4.91992 6.37329ZM5.84659 13V7.41996H3.99992V13H5.84659Z" fill="white"/>
</svg>