<svg xmlns="http://www.w3.org/2000/svg" width="17" height="17" viewBox="0 0 17 17" fill="none">
    <path d="M11.5733 9.66675C11.6267 9.22675 11.6667 8.78675 11.6667 8.33341C11.6667 7.88008 11.6267 7.44008 11.5733 7.00008H13.8267C13.9333 7.42675 14 7.87341 14 8.33341C14 8.79341 13.9333 9.24008 13.8267 9.66675M10.3933 13.3734C10.7933 12.6334 11.1 11.8334 11.3133 11.0001H13.28C12.6341 12.1123 11.6094 12.9547 10.3933 13.3734ZM10.2267 9.66675H7.10667C7.04 9.22675 7 8.78675 7 8.33341C7 7.88008 7.04 7.43341 7.10667 7.00008H10.2267C10.2867 7.43341 10.3333 7.88008 10.3333 8.33341C10.3333 8.78675 10.2867 9.22675 10.2267 9.66675ZM8.66667 13.6401C8.11333 12.8401 7.66667 11.9534 7.39333 11.0001H9.94C9.66667 11.9534 9.22 12.8401 8.66667 13.6401ZM6 5.66675H4.05333C4.69257 4.55156 5.71653 3.70774 6.93333 3.29341C6.53333 4.03341 6.23333 4.83341 6 5.66675ZM4.05333 11.0001H6C6.23333 11.8334 6.53333 12.6334 6.93333 13.3734C5.71908 12.9545 4.69656 12.1119 4.05333 11.0001ZM3.50667 9.66675C3.4 9.24008 3.33333 8.79341 3.33333 8.33341C3.33333 7.87341 3.4 7.42675 3.50667 7.00008H5.76C5.70667 7.44008 5.66667 7.88008 5.66667 8.33341C5.66667 8.78675 5.70667 9.22675 5.76 9.66675M8.66667 3.02008C9.22 3.82008 9.66667 4.71341 9.94 5.66675H7.39333C7.66667 4.71341 8.11333 3.82008 8.66667 3.02008ZM13.28 5.66675H11.3133C11.1047 4.84105 10.7957 4.04401 10.3933 3.29341C11.62 3.71341 12.64 4.56008 13.28 5.66675ZM8.66667 1.66675C4.98 1.66675 2 4.66675 2 8.33341C2 10.1015 2.70238 11.7972 3.95262 13.0475C4.57168 13.6665 5.30661 14.1576 6.11544 14.4926C6.92428 14.8276 7.79119 15.0001 8.66667 15.0001C10.4348 15.0001 12.1305 14.2977 13.3807 13.0475C14.631 11.7972 15.3333 10.1015 15.3333 8.33341C15.3333 7.45794 15.1609 6.59103 14.8259 5.78219C14.4908 4.97335 13.9998 4.23843 13.3807 3.61937C12.7617 3.00031 12.0267 2.50925 11.2179 2.17422C10.4091 1.83919 9.54215 1.66675 8.66667 1.66675Z" fill="white"/>
</svg>